<svg width="30" height="30" viewBox="0 0 30 30" fill="none" xmlns="http://www.w3.org/2000/svg">
<path d="M29.2145 22.1567L26.2115 19.1203V11.6384C26.2514 8.86008 25.2903 6.16102 23.5056 4.03962C21.7208 1.91823 19.233 0.517749 16.5015 0.0967902C14.9163 -0.113128 13.3047 0.0193119 11.7744 0.485272C10.244 0.951233 8.83014 1.74 7.627 2.79894C6.42386 3.85788 5.45915 5.16265 4.79725 6.62619C4.13534 8.08972 3.79145 9.67837 3.78853 11.2861V19.1203L0.785463 22.1567C0.408254 22.5423 0.152455 23.0312 0.0500445 23.5622C-0.0523657 24.0932 0.0031566 24.6427 0.20967 25.1422C0.416184 25.6416 0.764526 26.0688 1.21115 26.3702C1.65777 26.6717 2.18286 26.8341 2.72078 26.8371L11.9944 26.7432C11.9944 26.7432 11.9944 30 15.0499 30C18.1055 30 18.1055 26.7432 18.1055 26.7432L27.2792 26.8371C27.8171 26.8341 28.3422 26.6717 28.7889 26.3702C29.2355 26.0688 29.5838 25.6416 29.7903 25.1422C29.9968 24.6427 30.0524 24.0932 29.95 23.5622C29.8475 23.0312 29.5917 22.5423 29.2145 22.1567Z" fill="#3A47FF"/>
</svg>
