<svg width="24" height="21" viewBox="0 0 24 21" fill="none" xmlns="http://www.w3.org/2000/svg">
<path d="M18.5143 12.6C17.2886 12.6 16.2393 12.1887 15.3664 11.3662C14.4936 10.5437 14.0571 9.555 14.0571 8.4C14.0571 7.245 14.4936 6.25625 15.3664 5.43375C16.2393 4.61125 17.2886 4.2 18.5143 4.2C19.74 4.2 20.7893 4.61125 21.6621 5.43375C22.535 6.25625 22.9714 7.245 22.9714 8.4C22.9714 9.555 22.535 10.5437 21.6621 11.3662C20.7893 12.1887 19.74 12.6 18.5143 12.6Z" fill="white"/>
<path d="M12.3429 18.65V17.85C12.3429 17.2833 12.4491 16.7625 12.6616 16.2875C12.8741 15.8125 13.1564 15.45 13.5086 15.2C14.2614 14.6833 15.0264 14.2958 15.8036 14.0375C16.5807 13.7792 17.37 13.65 18.1714 13.65C18.9729 13.65 19.7621 13.7792 20.5393 14.0375C21.3164 14.2958 22.0814 14.6833 22.8343 15.2C23.1864 15.45 23.4688 15.8125 23.6813 16.2875C23.8938 16.7625 24 17.2833 24 17.85V18.65C24 19.2 23.8573 19.6708 23.572 20.0625C23.2866 20.4542 22.9436 20.65 22.5429 20.65H13.8C13.3993 20.65 13.0563 20.4542 12.7709 20.0625C12.4855 19.6708 12.3429 19.2 12.3429 18.65Z" fill="white"/>
<path d="M8.05714 10.85C6.50143 10.85 5.16964 10.3188 4.06179 9.25641C2.95393 8.19401 2.4 6.91687 2.4 5.425C2.4 3.93313 2.95393 2.65599 4.06179 1.59359C5.16964 0.531198 6.50143 0 8.05714 0C9.61286 0 10.9446 0.531198 12.0525 1.59359C13.1604 2.65599 13.7143 3.93313 13.7143 5.425C13.7143 6.91687 13.1604 8.19401 12.0525 9.25641C10.9446 10.3188 9.61286 10.85 8.05714 10.85Z" fill="white"/>
<path d="M0 18.2V17.08C0 16.2867 0.15 15.5575 0.45 14.8925C0.75 14.2275 1.14857 13.72 1.64571 13.37C2.70857 12.6467 3.78857 12.1042 4.88571 11.7425C5.98286 11.3808 7.09714 11.2 8.22857 11.2C9.36 11.2 10.4743 11.3808 11.5714 11.7425C12.6686 12.1042 13.7486 12.6467 14.8114 13.37C15.3086 13.72 15.7071 14.2275 16.0071 14.8925C16.3071 15.5575 16.4571 16.2867 16.4571 17.08V18.2C16.4571 18.97 16.2557 19.6292 15.8529 20.1775C15.45 20.7258 14.9657 21 14.4 21H2.05714C1.49143 21 1.00714 20.7258 0.604286 20.1775C0.201429 19.6292 0 18.97 0 18.2Z" fill="white"/>
</svg>
