<svg fill="#ffffff" viewBox="0 0 19.00 19.00" xmlns="http://www.w3.org/2000/svg" class="cf-icon-svg" transform="rotate(0)matrix(1, 0, 0, 1, 0, 0)" stroke="#ffffff" stroke-width="0.00019"><g id="SVGRepo_bgCarrier" stroke-width="0"></g><g id="SVGRepo_tracerCarrier" stroke-linecap="round" stroke-linejoin="round" stroke="#CCCCCC" stroke-width="0.266"></g><g id="SVGRepo_iconCarrier"><path d="M14.032 5.286v7.276a1.112 1.112 0 0 1-1.108 1.108H8.75l-1.02 1.635a.273.273 0 0 1-.503 0l-1.02-1.635h-4.13a1.112 1.112 0 0 1-1.109-1.108V5.286a1.112 1.112 0 0 1 1.108-1.108h10.848a1.112 1.112 0 0 1 1.108 1.108zM8.206 11.34a.706.706 0 1 0-.706.705.706.706 0 0 0 .706-.705zm-1.26-1.83a.554.554 0 1 0 1.108 0V6.275a.554.554 0 1 0-1.108 0z"></path></g></svg>