<svg width="24" height="24" viewBox="0 0 24 24" fill="none" xmlns="http://www.w3.org/2000/svg">
<path d="M8.43599 16.2581C9.71871 16.2581 10.7586 17.2979 10.7586 18.5806V21.6774C10.7586 22.9601 9.71871 24 8.43599 24H2.32258C1.03986 24 4.98787e-08 22.9601 0 21.6774V18.5806C4.98787e-08 17.2979 1.03985 16.2581 2.32258 16.2581H8.43599Z" fill="white"/>
<path d="M21.6774 10.0645C22.9601 10.0645 24 11.1044 24 12.3871V21.6774C24 22.9601 22.9601 24 21.6774 24H15.564C14.2813 24 13.2414 22.9601 13.2414 21.6774V12.3871C13.2414 11.1044 14.2813 10.0645 15.564 10.0645H21.6774Z" fill="white"/>
<path d="M8.43599 0C9.71871 0 10.7586 1.03985 10.7586 2.32258V11.6129C10.7586 12.8956 9.71871 13.9355 8.43599 13.9355H2.32258C1.03986 13.9355 3.7409e-08 12.8956 0 11.6129V2.32258C1.49636e-07 1.03985 1.03985 0 2.32258 0H8.43599Z" fill="white"/>
<path d="M21.6774 0C22.9601 1.96067e-07 24 1.03985 24 2.32258V5.41935C24 6.70208 22.9601 7.74194 21.6774 7.74194H15.564C14.2813 7.74194 13.2414 6.70208 13.2414 5.41935V2.32258C13.2414 1.03985 14.2813 0 15.564 0H21.6774Z" fill="white"/>
</svg>
