<svg width="24" height="23" viewBox="0 0 24 23" fill="none" xmlns="http://www.w3.org/2000/svg">
<path d="M15.4237 1.88806C13.6201 0.250042 10.8672 0.250042 9.06363 1.88806L1.10484 9.11616C0.714604 9.47057 0.965327 10.1196 1.49248 10.1196C1.78413 10.1196 2.02986 10.3374 2.06488 10.6269L3.09563 19.1468C3.36094 21.3398 5.23397 22.982 7.44288 22.9581L8.40817 22.9477C9.1612 22.9396 9.86852 22.5755 10.3149 21.9689C11.2693 20.6718 13.2128 20.6649 14.1673 21.962C14.6174 22.5736 15.3316 22.9348 16.091 22.9348H17.0629C19.2341 22.9348 21.0663 21.3198 21.3389 19.1658L22.4199 10.6245C22.4564 10.3359 22.7019 10.1196 22.9927 10.1196C23.5206 10.1196 23.7717 9.46965 23.3809 9.11475L15.4237 1.88806Z" fill="white"/>
</svg>
