<svg width="20" height="24" viewBox="0 0 20 24" fill="none" xmlns="http://www.w3.org/2000/svg">
<path d="M19.1904 5.19385L13.5607 0.270769C13.363 0.0976093 13.0947 0.000215449 12.8148 0H3.66667C2.82681 0 2.02136 0.291757 1.4275 0.811089C0.83363 1.33042 0.5 2.03479 0.5 2.76923V21.2308C0.5 21.9652 0.83363 22.6696 1.4275 23.1889C2.02136 23.7082 2.82681 24 3.66667 24H16.3333C17.1732 24 17.9786 23.7082 18.5725 23.1889C19.1664 22.6696 19.5 21.9652 19.5 21.2308V5.84615C19.4998 5.60142 19.3884 5.36679 19.1904 5.19385ZM14.2222 19.0769H5.77778C5.49783 19.0769 5.22934 18.9797 5.03139 18.8066C4.83343 18.6335 4.72222 18.3987 4.72222 18.1538C4.72222 17.909 4.83343 17.6742 5.03139 17.5011C5.22934 17.328 5.49783 17.2308 5.77778 17.2308H14.2222C14.5022 17.2308 14.7707 17.328 14.9686 17.5011C15.1666 17.6742 15.2778 17.909 15.2778 18.1538C15.2778 18.3987 15.1666 18.6335 14.9686 18.8066C14.7707 18.9797 14.5022 19.0769 14.2222 19.0769ZM14.2222 15.3846H5.77778C5.49783 15.3846 5.22934 15.2874 5.03139 15.1143C4.83343 14.9411 4.72222 14.7064 4.72222 14.4615C4.72222 14.2167 4.83343 13.9819 5.03139 13.8088C5.22934 13.6357 5.49783 13.5385 5.77778 13.5385H14.2222C14.5022 13.5385 14.7707 13.6357 14.9686 13.8088C15.1666 13.9819 15.2778 14.2167 15.2778 14.4615C15.2778 14.7064 15.1666 14.9411 14.9686 15.1143C14.7707 15.2874 14.5022 15.3846 14.2222 15.3846ZM14.2222 11.6923H5.77778C5.49783 11.6923 5.22934 11.5951 5.03139 11.4219C4.83343 11.2488 4.72222 11.014 4.72222 10.7692C4.72222 10.5244 4.83343 10.2896 5.03139 10.1165C5.22934 9.94341 5.49783 9.84615 5.77778 9.84615H14.2222C14.5022 9.84615 14.7707 9.94341 14.9686 10.1165C15.1666 10.2896 15.2778 10.5244 15.2778 10.7692C15.2778 11.014 15.1666 11.2488 14.9686 11.4219C14.7707 11.5951 14.5022 11.6923 14.2222 11.6923ZM13.1667 6.46154C12.8867 6.46154 12.6182 6.36429 12.4203 6.19118C12.2223 6.01807 12.1111 5.78328 12.1111 5.53846V1.53846L17.7407 6.46154H13.1667Z" fill="white"/>
</svg>
