<svg width="30" height="19" viewBox="0 0 30 19" fill="none" xmlns="http://www.w3.org/2000/svg">
<path fill-rule="evenodd" clip-rule="evenodd" d="M15.5065 0.0994986C15.1814 -0.0331662 14.8186 -0.0331662 14.4935 0.0994986L0.857195 5.6643C0.339477 5.87558 0 6.38714 0 6.956C0 7.52486 0.339477 8.03641 0.857195 8.24773L6.81818 10.6802V16.2158C6.81818 18.0796 8.57928 19.4164 10.3291 18.8808L15 17.4512L19.6709 18.8808C21.4207 19.4164 23.1818 18.0796 23.1818 16.2158V10.6802L29.1428 8.24773C29.6605 8.03641 30 7.52486 30 6.956C30 6.38714 29.6605 5.87558 29.1428 5.6643L15.5065 0.0994986Z" fill="#FA9405"/>
<path fill-rule="evenodd" clip-rule="evenodd" d="M24.5455 16.6944V8.3472H27.2727V16.6944H24.5455Z" fill="#FA9405"/>
</svg>
