<svg width="24" height="24" viewBox="0 0 24 24" fill="none" xmlns="http://www.w3.org/2000/svg">
<path d="M23.3716 17.7254L20.9692 15.2963V9.31073C21.0011 7.08806 20.2322 4.92882 18.8045 3.2317C17.3767 1.53458 15.3864 0.4142 13.2012 0.0774322C11.933 -0.0905023 10.6438 0.0154495 9.4195 0.388218C8.19524 0.760986 7.06411 1.392 6.1016 2.23915C5.13909 3.08631 4.36732 4.13012 3.8378 5.30095C3.30827 6.47178 3.03316 7.74269 3.03083 9.0289V15.2963L0.62837 17.7254C0.326603 18.0339 0.121964 18.425 0.0400356 18.8497C-0.0418925 19.2745 0.00252527 19.7142 0.167736 20.1137C0.332947 20.5133 0.61162 20.855 0.96892 21.0962C1.32622 21.3374 1.74629 21.4673 2.17662 21.4697L9.59549 21.3946C9.59549 21.3946 9.59549 24 12.0399 24C14.4844 24 14.4844 21.3946 14.4844 21.3946L21.8234 21.4697C22.2537 21.4673 22.6738 21.3374 23.0311 21.0962C23.3884 20.855 23.6671 20.5133 23.8323 20.1137C23.9975 19.7142 24.0419 19.2745 23.96 18.8497C23.878 18.425 23.6734 18.0339 23.3716 17.7254Z" fill="white"/>
</svg>
