<svg width="24" height="24" viewBox="0 0 24 24" fill="none" xmlns="http://www.w3.org/2000/svg">
<path d="M10.1543 13.1318C11.5504 13.1319 12.9255 13.3324 14.2793 13.7334C15.6331 14.1345 16.9658 14.7369 18.2773 15.5391C18.8906 15.9272 19.3828 16.4894 19.7529 17.2266C20.1231 17.964 20.3076 18.7735 20.3076 19.6533V20.8945C20.3076 21.7484 20.0596 22.4798 19.5625 23.0879C19.0654 23.696 18.4676 24 17.7695 24H2.53809C1.84025 23.9999 1.24309 23.6957 0.746094 23.0879C0.248972 22.4798 0 21.7484 0 20.8945V19.6533C0 18.7735 0.185467 17.964 0.555664 17.2266C0.925833 16.4893 1.41792 15.9271 2.03125 15.5391C3.34277 14.7369 4.67547 14.1345 6.0293 13.7334C7.38302 13.3324 8.75828 13.1318 10.1543 13.1318ZM20.3076 6.79199C20.8174 6.79199 21.2305 7.20601 21.2305 7.71582V9.50977H23.0947C23.5949 9.50977 23.9999 9.91491 24 10.415C24 10.9152 23.5949 11.3213 23.0947 11.3213H21.2305V13.1143C21.2305 13.6241 20.8174 14.0381 20.3076 14.0381C19.7979 14.038 19.3848 13.624 19.3848 13.1143V11.3213H17.5215C17.0213 11.3213 16.6162 10.9152 16.6162 10.415C16.6163 9.91491 17.0213 9.50977 17.5215 9.50977H19.3848V7.71582C19.3848 7.20609 19.7979 6.79212 20.3076 6.79199ZM10.1113 0C11.8765 1.84796e-05 13.3875 0.584599 14.6445 1.75293C15.9013 2.92119 16.5302 4.32535 16.5303 5.96582C16.5303 7.60648 15.9015 9.01134 14.6445 10.1797C13.3876 11.348 11.8764 11.9316 10.1113 11.9316C8.34623 11.9316 6.83511 11.348 5.57812 10.1797C4.32112 9.01134 3.69238 7.60648 3.69238 5.96582C3.69244 4.32531 4.32126 2.9212 5.57812 1.75293C6.83513 0.584581 8.34617 0 10.1113 0Z" fill="white"/>
</svg>
