<svg width="24" height="24" viewBox="0 0 24 24" fill="none" xmlns="http://www.w3.org/2000/svg">
<path d="M0 2.88C0 1.28942 1.40154 0 3.13043 0H4.17391C5.9028 0 7.30435 1.28942 7.30435 2.88V21.12C7.30435 22.7106 5.9028 24 4.17391 24H3.13043C1.40154 24 0 22.7106 0 21.12V2.88Z" fill="white"/>
<path d="M8.34783 6.72C8.34783 5.12942 9.74937 3.84 11.4783 3.84H12.5217C14.2506 3.84 15.6522 5.12942 15.6522 6.72V21.12C15.6522 22.7106 14.2506 24 12.5217 24H11.4783C9.74937 24 8.34783 22.7106 8.34783 21.12V6.72Z" fill="white"/>
<path d="M16.6957 13.44C16.6957 11.8494 18.0972 10.56 19.8261 10.56H20.8696C22.5985 10.56 24 11.8494 24 13.44V21.12C24 22.7106 22.5985 24 20.8696 24H19.8261C18.0972 24 16.6957 22.7106 16.6957 21.12V13.44Z" fill="white"/>
</svg>
