<svg width="24" height="25" viewBox="0 0 24 25" fill="none" xmlns="http://www.w3.org/2000/svg">
<path d="M22.6174 14.3179L22.1329 14.0464C21.5563 13.7241 21.2118 13.1455 21.2118 12.5C21.2118 11.8545 21.5563 11.2759 22.1329 10.9536L22.6174 10.6821C23.9402 9.94107 24.3925 8.30536 23.6288 7.02321L22.7077 5.47679C21.9459 4.19732 20.252 3.75804 18.9329 4.49643L18.4484 4.76696C17.8718 5.09018 17.1818 5.09018 16.6061 4.76696C16.0295 4.44375 15.685 3.86607 15.685 3.22054V2.67857C15.685 1.20179 14.4451 0 12.9216 0H11.0793C9.55577 0 8.31593 1.20179 8.31593 2.67857V3.22143C8.31593 3.86696 7.97143 4.44464 7.3948 4.76786C6.81817 5.09018 6.12916 5.09107 5.55253 4.76786L5.06802 4.49643C3.74896 3.75804 2.05499 4.19732 1.2923 5.47679L0.371164 7.02321C-0.392454 8.30536 0.0598216 9.94196 1.38257 10.6821L1.868 10.9536C2.44463 11.2759 2.78914 11.8545 2.78914 12.5C2.78914 13.1455 2.44463 13.7241 1.868 14.0464L1.38349 14.3179C0.0607427 15.058 -0.391533 16.6946 0.372085 17.9768L1.29322 19.5232C2.05592 20.8027 3.74988 21.242 5.06802 20.5036L5.55253 20.233C6.12916 19.9089 6.81817 19.9107 7.3948 20.233C7.97143 20.5562 8.31593 21.1339 8.31593 21.7795V22.3214C8.31593 23.7982 9.55577 25 11.0793 25H12.9216C14.4451 25 15.685 23.7982 15.685 22.3214V21.7786C15.685 21.133 16.0295 20.5554 16.6061 20.2321C17.1818 19.9098 17.8718 19.9089 18.4484 20.2321L18.9329 20.5036C20.252 21.2411 21.9459 20.8018 22.7077 19.5232L23.6288 17.9768C24.3925 16.6946 23.9402 15.058 22.6174 14.3179ZM12.0005 16.9643C9.4609 16.9643 7.3948 14.9616 7.3948 12.5C7.3948 10.0384 9.4609 8.03571 12.0005 8.03571C14.54 8.03571 16.6061 10.0384 16.6061 12.5C16.6061 14.9616 14.54 16.9643 12.0005 16.9643Z" fill="white"/>
</svg>
