<svg width="179" height="232" viewBox="0 0 179 232" fill="none" xmlns="http://www.w3.org/2000/svg">
<path d="M105.887 69.2139C107.387 90.7139 141.387 100.214 153.387 112.714C165.387 125.214 146.887 143.714 172.887 160.214" stroke="#9299FF" stroke-width="12" stroke-linecap="round"/>
<path d="M83.8872 79.7139C90.3872 100.714 110.887 106.214 123.387 123.714C135.887 141.214 126.387 149.214 131.387 160.214C136.387 171.214 162.387 180.214 155.387 202.714" stroke="#3A47FF" stroke-width="14" stroke-linecap="round"/>
<path d="M63.0173 204.37C62.275 208.164 64.7489 211.841 68.5429 212.584C72.337 213.326 76.0145 210.852 76.7568 207.058L69.887 205.714L63.0173 204.37ZM43.3871 93.2139L38.7195 98.4306C44.8548 103.92 44.7666 112.195 41.6982 125.236C40.3378 131.017 38.2533 138.246 37.0711 144.509C35.8566 150.943 35.1889 158.081 37.1823 164.725L43.8871 162.714L50.5918 160.702C49.5852 157.347 49.73 152.923 50.8281 147.106C51.9583 141.119 53.6863 135.411 55.326 128.442C58.2576 115.983 60.9194 99.5077 48.0546 87.9972L43.3871 93.2139ZM43.8871 162.714L37.1823 164.725C40.928 177.211 50.8064 183.752 56.2864 188.419C59.2931 190.979 61.1978 192.999 62.2948 195.213C63.2769 197.195 63.8897 199.911 63.0173 204.37L69.887 205.714L76.7568 207.058C78.1344 200.017 77.3723 194.108 74.8388 188.996C72.4201 184.116 68.6686 180.574 65.3627 177.759C58.2177 171.675 52.8461 168.217 50.5918 160.702L43.8871 162.714Z" fill="#9299FF"/>
<path d="M127.887 225.714C141.887 195.714 117.387 192.714 110.387 179.714C103.387 166.714 109.887 162.714 101.887 140.214C93.8872 117.714 65.3872 109.714 62.3872 84.2139" stroke="#9299FF" stroke-width="12" stroke-linecap="round"/>
<path d="M63.3872 83.2139C77.3872 105.214 63.3872 142.714 74.3872 162.714C85.3872 182.714 106.887 193.714 94.8872 219.714" stroke="#3A47FF" stroke-width="13" stroke-linecap="round"/>
<path d="M7.38721 107.214C10.8872 105.714 22.3873 80.7139 72.3872 62.714C122.387 44.714 137.387 52.714 141.387 53.714C144.887 47.214 109.887 -17.786 46.3872 4.71397C-17.1128 27.214 0.887231 103.714 7.38721 107.214Z" fill="#3A47FF"/>
<path d="M72.3872 62.714C22.3873 80.7139 10.8872 105.714 7.38721 107.214C15.8872 111.714 39.8843 97.315 79.8872 81.214C119.89 65.1129 136.387 62.9997 141.387 53.714C137.387 52.714 122.387 44.714 72.3872 62.714Z" fill="#9299FF"/>
</svg>
